<?xml version="1.0" standalone="no"?>
<!DOCTYPE svg PUBLIC "-//W3C//DTD SVG 20010904//EN"
 "http://www.w3.org/TR/2001/REC-SVG-20010904/DTD/svg10.dtd">
<svg version="1.0" xmlns="http://www.w3.org/2000/svg"
 width="512.000000pt" height="512.000000pt" viewBox="0 0 512.000000 512.000000"
 preserveAspectRatio="xMidYMid meet">

<g transform="translate(0.000000,512.000000) scale(0.100000,-0.100000)"
fill="#000000" stroke="none">
<path d="M1897 4269 c-97 -23 -212 -111 -256 -197 -52 -102 -51 -72 -51 -1279
0 -783 3 -1138 11 -1175 25 -121 115 -234 227 -286 l57 -27 905 0 905 0 66 32
c114 56 195 164 219 293 14 72 14 2248 0 2321 -22 115 -104 230 -201 280 -97
49 -87 49 -994 48 -467 -1 -867 -5 -888 -10z m1774 -252 c19 -12 44 -42 57
-67 l22 -44 0 -1116 0 -1116 -22 -44 c-13 -25 -38 -55 -57 -67 l-34 -23 -847
0 -847 0 -33 23 c-18 12 -43 35 -54 50 l-21 28 0 1149 0 1149 21 28 c11 15 36
38 54 51 l33 22 847 0 847 0 34 -23z"/>
<path d="M1201 3527 c-13 -6 -34 -25 -45 -40 -21 -28 -21 -30 -24 -1120 -2
-704 1 -1120 7 -1170 20 -146 101 -259 230 -321 l66 -31 861 -3 860 -3 35 24
c70 47 70 147 0 194 l-34 23 -825 0 c-815 0 -826 0 -868 21 -26 12 -53 36 -66
57 l-23 37 -5 1141 c-5 1242 -1 1159 -61 1190 -34 17 -76 18 -108 1z"/>
</g>
</svg>
